<svg width="35" height="53" viewBox="0 0 35 53" fill="none" xmlns="http://www.w3.org/2000/svg">
<g filter="url(#filter0_d_118_13)">
<path d="M17.5283 2.53772H10.3467C8.44202 2.53772 6.61536 3.29435 5.26854 4.64116C3.92173 5.98797 3.1651 7.81464 3.1651 9.71932C3.1651 11.624 3.92173 13.4507 5.26854 14.7975C6.61536 16.1443 8.44202 16.9009 10.3467 16.9009M17.5283 2.53772V16.9009M17.5283 2.53772H24.7099C25.653 2.53772 26.5869 2.72348 27.4582 3.08439C28.3295 3.4453 29.1212 3.97429 29.7881 4.64116C30.4549 5.30804 30.9839 6.09973 31.3448 6.97104C31.7058 7.84235 31.8915 8.77622 31.8915 9.71932C31.8915 10.6624 31.7058 11.5963 31.3448 12.4676C30.9839 13.3389 30.4549 14.1306 29.7881 14.7975C29.1212 15.4644 28.3295 15.9934 27.4582 16.3543C26.5869 16.7152 25.653 16.9009 24.7099 16.9009M17.5283 16.9009H10.3467M17.5283 16.9009H24.7099M17.5283 16.9009V31.2641M10.3467 16.9009C8.44202 16.9009 6.61536 17.6576 5.26854 19.0044C3.92173 20.3512 3.1651 22.1778 3.1651 24.0825C3.1651 25.9872 3.92173 27.8139 5.26854 29.1607C6.61536 30.5075 8.44202 31.2641 10.3467 31.2641M24.7099 16.9009C23.7668 16.9009 22.8329 17.0867 21.9616 17.4476C21.0903 17.8085 20.2986 18.3375 19.6318 19.0044C18.9649 19.6712 18.4359 20.4629 18.075 21.3342C17.7141 22.2056 17.5283 23.1394 17.5283 24.0825C17.5283 25.0256 17.7141 25.9595 18.075 26.8308C18.4359 27.7021 18.9649 28.4938 19.6318 29.1607C20.2986 29.8276 21.0903 30.3566 21.9616 30.7175C22.8329 31.0784 23.7668 31.2641 24.7099 31.2641C25.653 31.2641 26.5869 31.0784 27.4582 30.7175C28.3295 30.3566 29.1212 29.8276 29.7881 29.1607C30.4549 28.4938 30.9839 27.7021 31.3448 26.8308C31.7058 25.9595 31.8915 25.0256 31.8915 24.0825C31.8915 23.1394 31.7058 22.2056 31.3448 21.3342C30.9839 20.4629 30.4549 19.6712 29.7881 19.0044C29.1212 18.3375 28.3295 17.8085 27.4582 17.4476C26.5869 17.0867 25.653 16.9009 24.7099 16.9009ZM10.3467 31.2641C8.44202 31.2641 6.61536 32.0208 5.26854 33.3676C3.92173 34.7144 3.1651 36.5411 3.1651 38.4457C3.1651 40.3504 3.92173 42.1771 5.26854 43.5239C6.61536 44.8707 8.44202 45.6273 10.3467 45.6273C12.2514 45.6273 14.0781 44.8707 15.4249 43.5239C16.7717 42.1771 17.5283 40.3504 17.5283 38.4457V31.2641M10.3467 31.2641H17.5283" stroke="#F6F8D5" stroke-width="4" stroke-linecap="round" stroke-linejoin="round" shape-rendering="crispEdges"/>
</g>
<defs>
<filter id="filter0_d_118_13" x="0.1651" y="0.53772" width="34.7264" height="52.0897" filterUnits="userSpaceOnUse" color-interpolation-filters="sRGB">
<feFlood flood-opacity="0" result="BackgroundImageFix"/>
<feColorMatrix in="SourceAlpha" type="matrix" values="0 0 0 0 0 0 0 0 0 0 0 0 0 0 0 0 0 0 127 0" result="hardAlpha"/>
<feOffset dy="4"/>
<feGaussianBlur stdDeviation="0.5"/>
<feComposite in2="hardAlpha" operator="out"/>
<feColorMatrix type="matrix" values="0 0 0 0 0 0 0 0 0 0 0 0 0 0 0 0 0 0 0.5 0"/>
<feBlend mode="normal" in2="BackgroundImageFix" result="effect1_dropShadow_118_13"/>
<feBlend mode="normal" in="SourceGraphic" in2="effect1_dropShadow_118_13" result="shape"/>
</filter>
</defs>
</svg>
