<svg width="62" height="57" viewBox="0 0 62 57" fill="none" xmlns="http://www.w3.org/2000/svg">
<g filter="url(#filter0_d_118_15)">
<path d="M49.6861 16.8539C49.0683 16.6417 48.446 16.4441 47.8193 16.261C47.9232 15.8358 48.0191 15.4081 48.1069 14.978C49.5206 8.06498 48.5962 2.49565 45.4414 0.662288C42.4207 -1.09696 37.4667 0.736399 32.4693 5.11994C31.9779 5.55246 31.4966 5.99794 31.0254 6.45638C30.7112 6.15184 30.389 5.85377 30.0587 5.56218C24.8208 0.874903 19.5709 -1.09939 16.4196 0.740044C13.3989 2.50294 12.5012 7.73816 13.7735 14.2904C13.9008 14.9384 14.0438 15.5835 14.2024 16.2258C13.4594 16.4384 12.7416 16.6656 12.0553 16.9062C5.92209 19.0627 2 22.4439 2 25.9503C2 29.5732 6.20966 33.2059 12.6051 35.4086C13.1239 35.586 13.6474 35.7509 14.1759 35.9031C14.0043 36.5908 13.8525 37.2861 13.7203 37.9892C12.5121 44.4284 13.4545 49.5397 16.4692 51.2917C19.5829 53.1007 24.8063 51.2419 29.898 46.7587C30.3008 46.4039 30.7036 46.0293 31.1063 45.6349C31.6154 46.1298 32.139 46.6101 32.6771 47.0758C37.6069 51.35 42.4751 53.0764 45.4849 51.3196C48.5962 49.5045 49.6076 44.0129 48.2942 37.3319C48.1935 36.8216 48.0775 36.3008 47.9462 35.7695C48.3135 35.6601 48.6732 35.5471 49.0252 35.4305C55.6707 33.2108 60 29.6218 60 25.9539C59.9976 22.4305 55.9498 19.0275 49.6861 16.8539ZM34.0992 7.00311C38.3802 3.2477 42.382 1.76546 44.2065 2.8249C46.1482 3.95359 46.9034 8.50479 45.6831 14.4738C45.6025 14.8626 45.5155 15.2502 45.4221 15.6365C42.8673 15.0522 40.2766 14.6399 37.6673 14.4022C36.1733 12.2382 34.5356 10.1782 32.7653 8.23629C33.1987 7.81348 33.6425 7.40242 34.0968 7.00311H34.0992ZM19.125 28.9463C19.6494 29.9669 20.1975 30.9749 20.7695 31.9703C21.3519 32.986 21.9588 33.9867 22.5904 34.9725C20.7949 34.7762 19.0107 34.4871 17.2449 34.1062C17.7572 32.4393 18.3879 30.708 19.125 28.9463ZM19.125 23.0745C18.4 21.3505 17.7862 19.6544 17.2824 18.0166C18.9377 17.6436 20.7018 17.3387 22.5408 17.1078C21.9246 18.0749 21.3317 19.0562 20.7622 20.0517C20.1927 21.0471 19.6458 22.0547 19.1214 23.0745H19.125ZM20.442 26.011C21.2057 24.4097 22.0281 22.8392 22.9093 21.2994C23.7898 19.7605 24.727 18.2568 25.721 16.7883C27.4464 16.6571 29.2154 16.5879 31.0024 16.5879C32.7895 16.5879 34.5693 16.6571 36.2935 16.7895C37.277 18.2548 38.2086 19.7532 39.0882 21.2848C39.9679 22.8165 40.8012 24.3797 41.5882 25.9746C40.8117 27.5815 39.9804 29.1585 39.0943 30.7056C38.2155 32.2445 37.2891 33.7527 36.3152 35.23C34.5934 35.3515 32.8112 35.4184 30.9988 35.4184C29.1864 35.4184 27.438 35.3613 25.7476 35.2507C24.7463 33.7774 23.8015 32.2672 22.913 30.7201C22.0245 29.1731 21.1996 27.6034 20.4384 26.011H20.442ZM41.239 31.9533C41.823 30.9344 42.3836 29.9021 42.9209 28.8564C43.6574 30.5356 44.3075 32.2517 44.8687 33.9981C43.0821 34.4026 41.2756 34.7128 39.4568 34.9275C40.0706 33.9483 40.6647 32.9569 41.239 31.9533ZM42.8968 23.0757C42.3619 22.0511 41.8057 21.0386 41.2281 20.0383C40.6643 19.0518 40.0766 18.0774 39.4652 17.1151C41.3151 17.3508 43.0901 17.6643 44.7539 18.047C44.2189 19.7534 43.5991 21.4318 42.8968 23.0757ZM31.0266 10.021C32.2331 11.3467 33.3724 12.7327 34.44 14.1737C32.1563 14.0644 29.8711 14.0644 27.5842 14.1737C28.7115 12.6745 29.8654 11.2834 31.0266 10.021ZM17.6666 2.89901C19.6071 1.76668 23.8977 3.38499 28.4203 7.42713C28.7091 7.68591 29.0003 7.95685 29.2903 8.2375C27.5109 10.1791 25.8616 12.2373 24.3532 14.3985C21.7497 14.6344 19.1641 15.0402 16.613 15.6135C16.4656 15.0173 16.3327 14.4171 16.2142 13.8129C15.1207 8.19619 15.8445 3.96209 17.6666 2.89901ZM14.838 33.4975C14.3547 33.359 13.8774 33.2088 13.4062 33.0468C10.5788 32.0748 8.2432 30.8064 6.63981 29.425C5.20437 28.187 4.47698 26.9514 4.47698 25.9503C4.47698 23.8229 7.62576 21.1087 12.877 19.268C13.5367 19.0372 14.202 18.8262 14.873 18.635C15.6529 21.1552 16.5974 23.6208 17.7004 26.0159C16.5843 28.444 15.6281 30.9433 14.838 33.4975ZM28.2657 44.878C26.0146 46.8608 23.76 48.2665 21.7723 48.9748C19.9865 49.6102 18.5644 49.6284 17.7053 49.1291C15.8759 48.066 15.1147 43.9607 16.1526 38.4545C16.2759 37.8065 16.4168 37.1586 16.5755 36.5106C19.1522 37.0687 21.7637 37.4499 24.3919 37.6514C25.915 39.8239 27.5779 41.8937 29.37 43.8477C29.01 44.2037 28.6414 44.5463 28.2657 44.878ZM31.0955 42.0568C29.921 40.7799 28.749 39.3669 27.6059 37.8483C28.7167 37.892 29.8477 37.9139 30.9988 37.9139C32.1805 37.9139 33.3501 37.8884 34.5028 37.8361C33.4391 39.3003 32.3018 40.709 31.0955 42.0568ZM46.141 45.5304C45.7954 47.4063 45.1007 48.6577 44.2416 49.1582C42.4134 50.225 38.5046 48.8387 34.2902 45.1829C33.8068 44.765 33.3235 44.3167 32.8318 43.8465C34.5889 41.8849 36.2129 39.8067 37.6927 37.6259C40.3354 37.4008 42.9596 36.9928 45.5465 36.4049C45.6649 36.886 45.7696 37.3574 45.8607 37.8191C46.4419 40.7714 46.5252 43.4419 46.141 45.5304ZM48.2434 33.0601C47.9268 33.1658 47.6006 33.2679 47.2695 33.3675C46.4584 30.8355 45.477 28.3618 44.3322 25.9636C45.434 23.5974 46.377 21.1596 47.1547 18.6666C47.748 18.8404 48.3244 19.0226 48.879 19.2158C54.2462 21.0771 57.5206 23.8326 57.5206 25.9503C57.5206 28.2101 53.984 31.143 48.2434 33.0601Z" fill="#F6F8D5"/>
<path d="M30.9988 31.1697C32.0271 31.173 33.0333 30.8695 33.8899 30.2975C34.7466 29.7255 35.4151 28.9108 35.811 27.9565C36.2068 27.0021 36.3121 25.9512 36.1135 24.9367C35.915 23.9221 35.4215 22.9897 34.6955 22.2573C33.9696 21.525 33.0439 21.0257 32.0356 20.8228C31.0272 20.6198 29.9817 20.7223 29.0314 21.1172C28.081 21.5121 27.2685 22.1817 26.6969 23.0412C26.1252 23.9007 25.8201 24.9114 25.8201 25.9454C25.8187 26.6304 25.9515 27.309 26.2111 27.9424C26.4706 28.5758 26.8517 29.1515 27.3327 29.6367C27.8136 30.1219 28.385 30.507 29.014 30.77C29.6431 31.0331 30.3175 31.1689 30.9988 31.1697Z" fill="#F6F8D5"/>
</g>
<defs>
<filter id="filter0_d_118_15" x="0" y="0" width="62" height="57" filterUnits="userSpaceOnUse" color-interpolation-filters="sRGB">
<feFlood flood-opacity="0" result="BackgroundImageFix"/>
<feColorMatrix in="SourceAlpha" type="matrix" values="0 0 0 0 0 0 0 0 0 0 0 0 0 0 0 0 0 0 127 0" result="hardAlpha"/>
<feOffset dy="3"/>
<feGaussianBlur stdDeviation="1"/>
<feComposite in2="hardAlpha" operator="out"/>
<feColorMatrix type="matrix" values="0 0 0 0 0 0 0 0 0 0 0 0 0 0 0 0 0 0 1 0"/>
<feBlend mode="normal" in2="BackgroundImageFix" result="effect1_dropShadow_118_15"/>
<feBlend mode="normal" in="SourceGraphic" in2="effect1_dropShadow_118_15" result="shape"/>
</filter>
</defs>
</svg>
