<svg width="42" height="61" viewBox="0 0 42 61" fill="none" xmlns="http://www.w3.org/2000/svg">
<path d="M21 2.33337H11.6667C9.19131 2.33337 6.81734 3.3167 5.067 5.06704C3.31666 6.81738 2.33333 9.19135 2.33333 11.6667C2.33333 14.1421 3.31666 16.516 5.067 18.2664C6.81734 20.0167 9.19131 21 11.6667 21M21 2.33337V21M21 2.33337H30.3333C31.559 2.33337 32.7727 2.57479 33.905 3.04383C35.0374 3.51288 36.0663 4.20036 36.933 5.06704C37.7997 5.93372 38.4872 6.96262 38.9562 8.095C39.4252 9.22737 39.6667 10.441 39.6667 11.6667C39.6667 12.8924 39.4252 14.106 38.9562 15.2384C38.4872 16.3708 37.7997 17.3997 36.933 18.2664C36.0663 19.1331 35.0374 19.8205 33.905 20.2896C32.7727 20.7586 31.559 21 30.3333 21M21 21H11.6667M21 21H30.3333M21 21V39.6667M11.6667 21C9.19131 21 6.81734 21.9834 5.067 23.7337C3.31666 25.4841 2.33333 27.858 2.33333 30.3334C2.33333 32.8087 3.31666 35.1827 5.067 36.933C6.81734 38.6834 9.19131 39.6667 11.6667 39.6667M30.3333 21C29.1077 21 27.894 21.2415 26.7616 21.7105C25.6292 22.1795 24.6003 22.867 23.7337 23.7337C22.867 24.6004 22.1795 25.6293 21.7105 26.7617C21.2414 27.894 21 29.1077 21 30.3334C21 31.559 21.2414 32.7727 21.7105 33.9051C22.1795 35.0375 22.867 36.0664 23.7337 36.933C24.6003 37.7997 25.6292 38.4872 26.7616 38.9563C27.894 39.4253 29.1077 39.6667 30.3333 39.6667C31.559 39.6667 32.7727 39.4253 33.905 38.9563C35.0374 38.4872 36.0663 37.7997 36.933 36.933C37.7997 36.0664 38.4872 35.0375 38.9562 33.9051C39.4252 32.7727 39.6667 31.559 39.6667 30.3334C39.6667 29.1077 39.4252 27.894 38.9562 26.7617C38.4872 25.6293 37.7997 24.6004 36.933 23.7337C36.0663 22.867 35.0374 22.1795 33.905 21.7105C32.7727 21.2415 31.559 21 30.3333 21ZM11.6667 39.6667C9.19131 39.6667 6.81734 40.65 5.067 42.4004C3.31666 44.1507 2.33333 46.5247 2.33333 49C2.33333 51.4754 3.31666 53.8494 5.067 55.5997C6.81734 57.35 9.19131 58.3334 11.6667 58.3334C14.142 58.3334 16.516 57.35 18.2663 55.5997C20.0167 53.8494 21 51.4754 21 49V39.6667M11.6667 39.6667H21" stroke="#1A191C" stroke-width="4" stroke-linecap="round" stroke-linejoin="round"/>
</svg>
