<svg width="64" height="64" viewBox="0 0 64 64" fill="none" xmlns="http://www.w3.org/2000/svg">
<path d="M51.3325 22.59C50.6933 22.3717 50.0496 22.1684 49.4012 21.98C49.5087 21.5425 49.6079 21.1025 49.6987 20.66C51.1613 13.5475 50.205 7.81752 46.9412 5.93127C43.8162 4.12127 38.6913 6.00752 33.5213 10.5175C33.0129 10.9625 32.515 11.4209 32.0275 11.8925C31.7025 11.5792 31.3692 11.2725 31.0275 10.9725C25.6087 6.15002 20.1775 4.11877 16.9175 6.01127C13.7925 7.82502 12.8638 13.2113 14.18 19.9525C14.3117 20.6192 14.4596 21.2829 14.6237 21.9438C13.855 22.1625 13.1125 22.3963 12.4025 22.6438C6.0575 24.8625 2 28.3413 2 31.9488C2 35.6763 6.355 39.4138 12.9712 41.68C13.5079 41.8625 14.0496 42.0321 14.5962 42.1888C14.4187 42.8963 14.2617 43.6117 14.125 44.335C12.875 50.96 13.85 56.2188 16.9688 58.0213C20.19 59.8825 25.5938 57.97 30.8612 53.3575C31.2779 52.9925 31.6946 52.6071 32.1113 52.2013C32.6379 52.7104 33.1796 53.2046 33.7363 53.6838C38.8363 58.0813 43.8725 59.8575 46.9863 58.05C50.205 56.1825 51.2513 50.5325 49.8925 43.6588C49.7883 43.1338 49.6683 42.5979 49.5325 42.0513C49.9125 41.9388 50.2846 41.8225 50.6488 41.7025C57.5238 39.4188 62.0025 35.7263 62.0025 31.9525C62 28.3275 57.8125 24.8263 51.3325 22.59ZM35.2075 12.455C39.6362 8.59127 43.7762 7.06627 45.6637 8.15627C47.6725 9.31752 48.4538 14 47.1912 20.1413C47.1079 20.5413 47.0179 20.94 46.9212 21.3375C44.2783 20.7364 41.5982 20.3121 38.8988 20.0675C37.3532 17.8411 35.6589 15.7217 33.8275 13.7238C34.2758 13.2888 34.735 12.8659 35.205 12.455H35.2075ZM19.7162 35.0313C20.2587 36.0813 20.8258 37.1184 21.4175 38.1425C22.02 39.1875 22.6479 40.2171 23.3013 41.2313C21.4438 41.0293 19.5981 40.7319 17.7712 40.34C18.3013 38.625 18.9537 36.8438 19.7162 35.0313ZM19.7162 28.99C18.9662 27.2163 18.3312 25.4713 17.81 23.7863C19.5225 23.4025 21.3475 23.0888 23.25 22.8513C22.6125 23.8463 21.9992 24.8559 21.41 25.88C20.8208 26.9042 20.255 27.9409 19.7125 28.99H19.7162ZM21.0788 32.0113C21.8688 30.3638 22.7196 28.7479 23.6313 27.1638C24.5421 25.5804 25.5117 24.0334 26.54 22.5225C28.325 22.3875 30.155 22.3163 32.0037 22.3163C33.8525 22.3163 35.6938 22.3875 37.4775 22.5238C38.495 24.0313 39.4588 25.5729 40.3688 27.1488C41.2788 28.7246 42.1408 30.3329 42.955 31.9738C42.1517 33.6271 41.2917 35.2496 40.375 36.8413C39.4658 38.4246 38.5075 39.9763 37.5 41.4963C35.7188 41.6213 33.875 41.69 32 41.69C30.125 41.69 28.3162 41.6313 26.5675 41.5175C25.5317 40.0017 24.5542 38.4479 23.635 36.8563C22.7158 35.2646 21.8625 33.6496 21.075 32.0113H21.0788ZM42.5938 38.125C43.1979 37.0767 43.7779 36.0146 44.3338 34.9388C45.0957 36.6664 45.7682 38.4321 46.3488 40.2288C44.5005 40.645 42.6317 40.9642 40.75 41.185C41.385 40.1775 41.9996 39.1575 42.5938 38.125ZM44.3088 28.9913C43.7554 27.9371 43.18 26.8954 42.5825 25.8663C41.9992 24.8513 41.3913 23.8488 40.7588 22.8588C42.6725 23.1013 44.5088 23.4238 46.23 23.8175C45.6766 25.5732 45.0354 27.2999 44.3088 28.9913ZM32.0288 15.56C33.2769 16.9239 34.4555 18.3499 35.56 19.8325C33.1975 19.72 30.8333 19.72 28.4675 19.8325C29.6338 18.29 30.8275 16.8588 32.0288 15.56ZM18.2075 8.23252C20.215 7.06752 24.6538 8.73252 29.3325 12.8913C29.6313 13.1575 29.9325 13.4363 30.2325 13.725C28.3917 15.7227 26.6855 17.8402 25.125 20.0638C22.4316 20.3065 19.7568 20.724 17.1175 21.3138C16.965 20.7004 16.8275 20.0829 16.705 19.4613C15.5737 13.6825 16.3225 9.32627 18.2075 8.23252ZM15.2812 39.7138C14.7812 39.5713 14.2875 39.4167 13.8 39.25C10.875 38.25 8.45875 36.945 6.8 35.5238C5.315 34.25 4.5625 32.9788 4.5625 31.9488C4.5625 29.76 7.82 26.9675 13.2525 25.0738C13.935 24.8363 14.6233 24.6192 15.3175 24.4225C16.1243 27.0154 17.1014 29.5522 18.2425 32.0163C17.0878 34.5145 16.0986 37.0858 15.2812 39.7138ZM29.1725 51.4225C26.8438 53.4625 24.5112 54.9088 22.455 55.6375C20.6075 56.2913 19.1362 56.31 18.2475 55.7963C16.355 54.7025 15.5675 50.4788 16.6413 44.8138C16.7688 44.1471 16.9146 43.4804 17.0788 42.8138C19.7444 43.388 22.4461 43.7802 25.165 43.9875C26.7407 46.2226 28.461 48.3522 30.315 50.3625C29.9425 50.7288 29.5613 51.0813 29.1725 51.4225ZM32.1 48.52C30.885 47.2063 29.6725 45.7525 28.49 44.19C29.6392 44.235 30.8092 44.2575 32 44.2575C33.2225 44.2575 34.4325 44.2313 35.625 44.1775C34.5245 45.684 33.348 47.1333 32.1 48.52ZM47.665 52.0938C47.3075 54.0238 46.5887 55.3113 45.7 55.8263C43.8088 56.9238 39.765 55.4975 35.405 51.7363C34.905 51.3063 34.405 50.845 33.8963 50.3613C35.7141 48.3431 37.3941 46.205 38.925 43.9613C41.659 43.7296 44.3737 43.3099 47.05 42.705C47.1725 43.2 47.2808 43.685 47.375 44.16C47.9762 47.1975 48.0625 49.945 47.665 52.0938ZM49.84 39.2638C49.5125 39.3725 49.175 39.4775 48.8325 39.58C47.9933 36.975 46.9781 34.4299 45.7938 31.9625C46.9336 29.528 47.9092 27.0199 48.7137 24.455C49.3275 24.6338 49.9238 24.8213 50.4975 25.02C56.05 26.935 59.4375 29.77 59.4375 31.9488C59.4375 34.2738 55.7788 37.2913 49.84 39.2638Z" fill="black"/>
<path d="M32 37.3187C33.0638 37.3222 34.1048 37.0099 34.991 36.4214C35.8772 35.8329 36.5688 34.9946 36.9783 34.0128C37.3878 33.0309 37.4968 31.9497 37.2914 30.9059C37.086 29.8621 36.5754 28.9027 35.8244 28.1492C35.0734 27.3958 34.1157 26.8821 33.0726 26.6733C32.0295 26.4645 30.9478 26.5699 29.9647 26.9762C28.9815 27.3825 28.141 28.0714 27.5496 28.9557C26.9582 29.84 26.6425 30.8799 26.6425 31.9437C26.6411 32.6485 26.7785 33.3467 27.047 33.9983C27.3155 34.65 27.7098 35.2423 28.2073 35.7415C28.7049 36.2407 29.296 36.6369 29.9467 36.9075C30.5975 37.1782 31.2952 37.3179 32 37.3187Z" fill="black"/>
</svg>
